<svg xmlns="http://www.w3.org/2000/svg" viewBox="0 0 32 32"><path fill="#f2c511" d="M16 7a9 9 0 100 18 9 9 0 000-18zm0 14.8a5.8 5.8 0 110-11.6 5.8 5.8 0 010 11.6z"/><circle fill="#f2c511" cx="24.5" cy="7.5" r="1.5"/><path fill="#f2c511" d="M16 0C10.7 0 10.2 0 8.3.1 6.4.2 5.1.6 4 1.3c-1.2.7-2.1 1.6-2.8 2.8C.5 5.1.2 6.4.1 8.3.1 10.2 0 10.7 0 16c0 5.3.1 5.8.1 7.7.1 1.9.5 3.2 1.2 4.3.7 1.2 1.6 2.1 2.8 2.8 1.1.7 2.4 1.1 4.3 1.2 1.9.1 2.4.1 7.7.1s5.8 0 7.7-.1c1.9-.1 3.2-.5 4.3-1.2 1.2-.7 2.1-1.6 2.8-2.8.7-1.1 1.1-2.4 1.2-4.3.1-1.9.1-2.4.1-7.7s0-5.8-.1-7.7c-.1-1.9-.5-3.2-1.2-4.3-.7-1.2-1.6-2.1-2.8-2.8-1.1-.7-2.4-1.1-4.3-1.2C21.8.1 21.3 0 16 0zm0 2c5.2 0 5.7 0 7.6.1 1.5.1 2.3.3 2.8.6.7.3 1.2.7 1.8 1.3.6.6 1 1.1 1.3 1.8.3.5.5 1.3.6 2.8.1 1.9.1 2.4.1 7.6s0 5.7-.1 7.6c-.1 1.5-.3 2.3-.6 2.8-.3.7-.7 1.2-1.3 1.8-.6.6-1.1 1-1.8 1.3-.5.3-1.3.5-2.8.6-1.9.1-2.4.1-7.6.1s-5.7 0-7.6-.1c-1.5-.1-2.3-.3-2.8-.6-.7-.3-1.2-.7-1.8-1.3-.6-.6-1-1.1-1.3-1.8-.3-.5-.5-1.3-.6-2.8C2 21.7 2 21.2 2 16s0-5.7.1-7.6c.1-1.5.3-2.3.6-2.8.3-.7.7-1.2 1.3-1.8.6-.6 1.1-1 1.8-1.3.5-.3 1.3-.5 2.8-.6C10.3 2 10.8 2 16 2z"/></svg>